Poster: 
http://img502.imageshack.us/img502/2781/tedmovieposter1.jpg

Info:

Format : AVI
Format/Info : Audio Video Interleave
File size : 703 MiB
Duration : 1h 41mn
Overall bit rate : 967 Kbps
Writing application : VirtualDubMod 1.5.10.2 (build 2540/release)
Writing library : VirtualDubMod build 2540/release

Video
ID : 0
Format : MPEG-4 Visual
Format profile : Advanced Simple@L5
Format settings, BVOP : 2
Format settings, QPel : No
Format settings, GMC : No warppoints
Format settings, Matrix : Default (MPEG)
Codec ID : XVID
Codec ID/Hint : XviD
Duration : 1h 41mn
Bit rate : 791 Kbps
Width : 720 pixels
Height : 384 pixels
Display aspect ratio : 1.85:1
Frame rate : 25.000 fps
Color space : YUV
Chroma subsampling : 4:2:0
Bit depth : 8 bits
Scan type : Progressive
Compression mode : Lossy
Bits/(Pixel*Frame) : 0.115
Stream size : 576 MiB (82%)
Writing library : XviD 1.2.1 (UTC 2008-12-04)

Audio
ID : 1
Format : MPEG Audio
Format version : Version 1
Format profile : Layer 3
Mode : Joint stereo
Codec ID : 55
Codec ID/Hint : MP3
Duration : 1h 41mn

Bit rate mode : Constant
Bit rate : 128 Kbps
Channel(s) : 2 channels
Sampling rate : 48.0 KHz
Compression mode : Lossy
Stream size : 93.1 MiB (13%)
Alignment : Aligned on interleaves
Writing library : LAME3.99r
Encoding settings : -m j -V 4 -q 2 -lowpass 17 -b 128


Screens:
 
http://www.pixentral.com/pics/16N7U2WtLWGPJUmUrBZ7A727xqSyR0.jpg 
http://www.pixentral.com/pics/1z2dYY6JJTBCJP6H31FPvXbtuScF70.jpg 
http://www.pixentral.com/pics/1PLZJc6b8XF0efxeHebvjPFSegjri.jpg 
http://www.pixentral.com/pics/1LjYYfvXOGeP1B488oycf6cw0npDh.jpg

